<?xml version="1.0" encoding="UTF-8" standalone="no"?>
<!DOCTYPE svg PUBLIC "-//W3C//DTD SVG 1.1//EN"
 "http://www.w3.org/Graphics/SVG/1.1/DTD/svg11.dtd">
<!-- Generated by graphviz version 2.47.0 (20210316.0004)
 -->
<!-- Title: dependencies Pages: 1 -->
<svg width="1281pt" height="284pt"
 viewBox="0.00 0.00 1281.00 284.00" xmlns="http://www.w3.org/2000/svg" xmlns:xlink="http://www.w3.org/1999/xlink">
<g id="graph0" class="graph" transform="scale(1 1) rotate(0) translate(4 280)">
<title>dependencies</title>
<polygon fill="white" stroke="transparent" points="-4,4 -4,-280 1277,-280 1277,4 -4,4"/>
<text text-anchor="start" x="615.51" y="-42.4" font-family="sans-serif" font-weight="bold" font-size="14.00">Legend</text>
<polygon fill="#ffffb3" stroke="transparent" points="402.5,-10 402.5,-30 422.5,-30 422.5,-10 402.5,-10"/>
<text text-anchor="start" x="426.13" y="-15.4" font-family="sans-serif" font-size="14.00"> &#160;Declarations</text>
<polygon fill="#8dd3c7" stroke="transparent" points="515.5,-10 515.5,-30 535.5,-30 535.5,-10 515.5,-10"/>
<text text-anchor="start" x="539.23" y="-15.4" font-family="sans-serif" font-size="14.00"> &#160;Module</text>
<polygon fill="#80b1d3" stroke="transparent" points="601.5,-10 601.5,-30 621.5,-30 621.5,-10 601.5,-10"/>
<text text-anchor="start" x="625.28" y="-15.4" font-family="sans-serif" font-size="14.00"> &#160;Bootstrap</text>
<polygon fill="#fdb462" stroke="transparent" points="698.5,-10 698.5,-30 718.5,-30 718.5,-10 698.5,-10"/>
<text text-anchor="start" x="722.17" y="-15.4" font-family="sans-serif" font-size="14.00"> &#160;Providers</text>
<polygon fill="#fb8072" stroke="transparent" points="794.5,-10 794.5,-30 814.5,-30 814.5,-10 794.5,-10"/>
<text text-anchor="start" x="818.23" y="-15.4" font-family="sans-serif" font-size="14.00"> &#160;Exports</text>
<g id="clust1" class="cluster">
<title>cluster_AppModule</title>
<polygon fill="none" stroke="black" stroke-dasharray="1,5" points="8,-70 8,-268 1265,-268 1265,-70 8,-70"/>
</g>
<g id="clust11" class="cluster">
<title>cluster_AppModule_imports</title>
<polygon fill="none" stroke="black" points="1113,-78 1113,-130 1257,-130 1257,-78 1113,-78"/>
</g>
<g id="clust13" class="cluster">
<title>cluster_AppModule_bootstrap</title>
<polygon fill="none" stroke="black" points="569,-208 569,-260 693,-260 693,-208 569,-208"/>
</g>
<g id="clust2" class="cluster">
<title>cluster_AppModule_declarations</title>
<polygon fill="none" stroke="black" points="16,-78 16,-130 1105,-130 1105,-78 16,-78"/>
</g>
<!-- AddHotelComponent -->
<g id="node1" class="node">
<title>AddHotelComponent</title>
<polygon fill="#ffffb3" stroke="black" points="1097.04,-122 960.96,-122 960.96,-86 1097.04,-86 1097.04,-122"/>
<text text-anchor="middle" x="1029" y="-99.8" font-family="Times,serif" font-size="14.00">AddHotelComponent</text>
</g>
<!-- AppModule -->
<g id="node9" class="node">
<title>AppModule</title>
<polygon fill="#8dd3c7" stroke="black" points="672.66,-187 669.66,-191 648.66,-191 645.66,-187 589.34,-187 589.34,-151 672.66,-151 672.66,-187"/>
<text text-anchor="middle" x="631" y="-164.8" font-family="Times,serif" font-size="14.00">AppModule</text>
</g>
<!-- AddHotelComponent&#45;&gt;AppModule -->
<g id="edge1" class="edge">
<title>AddHotelComponent&#45;&gt;AppModule</title>
<path fill="none" stroke="black" d="M1029,-122.13C1029,-142.57 1029,-173 1029,-173 1029,-173 682.84,-173 682.84,-173"/>
<polygon fill="black" stroke="black" points="682.84,-169.5 672.84,-173 682.84,-176.5 682.84,-169.5"/>
</g>
<!-- AppComponent -->
<g id="node2" class="node">
<title>AppComponent</title>
<polygon fill="#ffffb3" stroke="black" points="942.94,-122 837.06,-122 837.06,-86 942.94,-86 942.94,-122"/>
<text text-anchor="middle" x="890" y="-99.8" font-family="Times,serif" font-size="14.00">AppComponent</text>
</g>
<!-- AppComponent&#45;&gt;AppModule -->
<g id="edge2" class="edge">
<title>AppComponent&#45;&gt;AppModule</title>
<path fill="none" stroke="black" d="M890,-122.27C890,-140.56 890,-166 890,-166 890,-166 682.9,-166 682.9,-166"/>
<polygon fill="black" stroke="black" points="682.9,-162.5 672.9,-166 682.9,-169.5 682.9,-162.5"/>
</g>
<!-- BodyComponent -->
<g id="node3" class="node">
<title>BodyComponent</title>
<polygon fill="#ffffb3" stroke="black" points="818.67,-122 707.33,-122 707.33,-86 818.67,-86 818.67,-122"/>
<text text-anchor="middle" x="763" y="-99.8" font-family="Times,serif" font-size="14.00">BodyComponent</text>
</g>
<!-- BodyComponent&#45;&gt;AppModule -->
<g id="edge3" class="edge">
<title>BodyComponent&#45;&gt;AppModule</title>
<path fill="none" stroke="black" d="M763,-122.01C763,-138.05 763,-159 763,-159 763,-159 682.77,-159 682.77,-159"/>
<polygon fill="black" stroke="black" points="682.77,-155.5 672.77,-159 682.77,-162.5 682.77,-155.5"/>
</g>
<!-- DetailComponent -->
<g id="node4" class="node">
<title>DetailComponent</title>
<polygon fill="#ffffb3" stroke="black" points="688.54,-122 573.46,-122 573.46,-86 688.54,-86 688.54,-122"/>
<text text-anchor="middle" x="631" y="-99.8" font-family="Times,serif" font-size="14.00">DetailComponent</text>
</g>
<!-- DetailComponent&#45;&gt;AppModule -->
<g id="edge4" class="edge">
<title>DetailComponent&#45;&gt;AppModule</title>
<path fill="none" stroke="black" d="M631,-122.11C631,-122.11 631,-140.99 631,-140.99"/>
<polygon fill="black" stroke="black" points="627.5,-140.99 631,-150.99 634.5,-140.99 627.5,-140.99"/>
</g>
<!-- FooterComponent -->
<g id="node5" class="node">
<title>FooterComponent</title>
<polygon fill="#ffffb3" stroke="black" points="554.88,-122 437.12,-122 437.12,-86 554.88,-86 554.88,-122"/>
<text text-anchor="middle" x="496" y="-99.8" font-family="Times,serif" font-size="14.00">FooterComponent</text>
</g>
<!-- FooterComponent&#45;&gt;AppModule -->
<g id="edge5" class="edge">
<title>FooterComponent&#45;&gt;AppModule</title>
<path fill="none" stroke="black" d="M496,-122.01C496,-138.05 496,-159 496,-159 496,-159 579.03,-159 579.03,-159"/>
<polygon fill="black" stroke="black" points="579.03,-162.5 589.03,-159 579.03,-155.5 579.03,-162.5"/>
</g>
<!-- HeaderComponent -->
<g id="node6" class="node">
<title>HeaderComponent</title>
<polygon fill="#ffffb3" stroke="black" points="418.74,-122 297.26,-122 297.26,-86 418.74,-86 418.74,-122"/>
<text text-anchor="middle" x="358" y="-99.8" font-family="Times,serif" font-size="14.00">HeaderComponent</text>
</g>
<!-- HeaderComponent&#45;&gt;AppModule -->
<g id="edge6" class="edge">
<title>HeaderComponent&#45;&gt;AppModule</title>
<path fill="none" stroke="black" d="M358,-122.27C358,-140.56 358,-166 358,-166 358,-166 579.24,-166 579.24,-166"/>
<polygon fill="black" stroke="black" points="579.24,-169.5 589.24,-166 579.24,-162.5 579.24,-169.5"/>
</g>
<!-- HomeComponent -->
<g id="node7" class="node">
<title>HomeComponent</title>
<polygon fill="#ffffb3" stroke="black" points="278.55,-122 163.45,-122 163.45,-86 278.55,-86 278.55,-122"/>
<text text-anchor="middle" x="221" y="-99.8" font-family="Times,serif" font-size="14.00">HomeComponent</text>
</g>
<!-- HomeComponent&#45;&gt;AppModule -->
<g id="edge7" class="edge">
<title>HomeComponent&#45;&gt;AppModule</title>
<path fill="none" stroke="black" d="M221,-122.13C221,-142.57 221,-173 221,-173 221,-173 579.05,-173 579.05,-173"/>
<polygon fill="black" stroke="black" points="579.05,-176.5 589.05,-173 579.05,-169.5 579.05,-176.5"/>
</g>
<!-- SignupComponent -->
<g id="node8" class="node">
<title>SignupComponent</title>
<polygon fill="#ffffb3" stroke="black" points="145.51,-122 24.49,-122 24.49,-86 145.51,-86 145.51,-122"/>
<text text-anchor="middle" x="85" y="-99.8" font-family="Times,serif" font-size="14.00">SignupComponent</text>
</g>
<!-- SignupComponent&#45;&gt;AppModule -->
<g id="edge8" class="edge">
<title>SignupComponent&#45;&gt;AppModule</title>
<path fill="none" stroke="black" d="M85,-122.01C85,-144.49 85,-180 85,-180 85,-180 579.06,-180 579.06,-180"/>
<polygon fill="black" stroke="black" points="579.06,-183.5 589.06,-180 579.06,-176.5 579.06,-183.5"/>
</g>
<!-- AppComponent  -->
<g id="node11" class="node">
<title>AppComponent </title>
<polygon fill="#80b1d3" stroke="black" points="685.44,-252 576.56,-252 576.56,-216 685.44,-216 685.44,-252"/>
<text text-anchor="middle" x="631" y="-229.8" font-family="Times,serif" font-size="14.00">AppComponent </text>
</g>
<!-- AppModule&#45;&gt;AppComponent  -->
<g id="edge10" class="edge">
<title>AppModule&#45;&gt;AppComponent </title>
<path fill="none" stroke="black" stroke-dasharray="1,5" d="M631,-187.11C631,-187.11 631,-205.99 631,-205.99"/>
<polygon fill="black" stroke="black" points="627.5,-205.99 631,-215.99 634.5,-205.99 627.5,-205.99"/>
</g>
<!-- AppRoutingModule -->
<g id="node10" class="node">
<title>AppRoutingModule</title>
<polygon fill="#8dd3c7" stroke="black" points="1249.27,-122 1246.27,-126 1225.27,-126 1222.27,-122 1120.73,-122 1120.73,-86 1249.27,-86 1249.27,-122"/>
<text text-anchor="middle" x="1185" y="-99.8" font-family="Times,serif" font-size="14.00">AppRoutingModule</text>
</g>
<!-- AppRoutingModule&#45;&gt;AppModule -->
<g id="edge9" class="edge">
<title>AppRoutingModule&#45;&gt;AppModule</title>
<path fill="none" stroke="black" d="M1185,-122.01C1185,-144.49 1185,-180 1185,-180 1185,-180 683.09,-180 683.09,-180"/>
<polygon fill="black" stroke="black" points="683.09,-176.5 673.09,-180 683.09,-183.5 683.09,-176.5"/>
</g>
</g>
</svg>
