<?xml version="1.0" encoding="UTF-8" standalone="no"?>
<!DOCTYPE svg PUBLIC "-//W3C//DTD SVG 1.1//EN"
 "http://www.w3.org/Graphics/SVG/1.1/DTD/svg11.dtd">
<!-- Generated by graphviz version 2.47.0 (20210316.0004)
 -->
<!-- Title: dependencies Pages: 1 -->
<svg width="1281pt" height="284pt"
 viewBox="0.00 0.00 1281.00 284.00" xmlns="http://www.w3.org/2000/svg" xmlns:xlink="http://www.w3.org/1999/xlink">
<g id="graph0" class="graph" transform="scale(1 1) rotate(0) translate(4 280)">
<title>dependencies</title>
<polygon fill="white" stroke="transparent" points="-4,4 -4,-280 1277,-280 1277,4 -4,4"/>
<text text-anchor="start" x="615.51" y="-42.4" font-family="sans-serif" font-weight="bold" font-size="14.00">Legend</text>
<polygon fill="#ffffb3" stroke="transparent" points="402.5,-10 402.5,-30 422.5,-30 422.5,-10 402.5,-10"/>
<text text-anchor="start" x="426.13" y="-15.4" font-family="sans-serif" font-size="14.00"> &#160;Declarations</text>
<polygon fill="#8dd3c7" stroke="transparent" points="515.5,-10 515.5,-30 535.5,-30 535.5,-10 515.5,-10"/>
<text text-anchor="start" x="539.23" y="-15.4" font-family="sans-serif" font-size="14.00"> &#160;Module</text>
<polygon fill="#80b1d3" stroke="transparent" points="601.5,-10 601.5,-30 621.5,-30 621.5,-10 601.5,-10"/>
<text text-anchor="start" x="625.28" y="-15.4" font-family="sans-serif" font-size="14.00"> &#160;Bootstrap</text>
<polygon fill="#fdb462" stroke="transparent" points="698.5,-10 698.5,-30 718.5,-30 718.5,-10 698.5,-10"/>
<text text-anchor="start" x="722.17" y="-15.4" font-family="sans-serif" font-size="14.00"> &#160;Providers</text>
<polygon fill="#fb8072" stroke="transparent" points="794.5,-10 794.5,-30 814.5,-30 814.5,-10 794.5,-10"/>
<text text-anchor="start" x="818.23" y="-15.4" font-family="sans-serif" font-size="14.00"> &#160;Exports</text>
<g id="clust1" class="cluster">
<title>cluster_AppModule</title>
<polygon fill="none" stroke="black" stroke-dasharray="1,5" points="8,-70 8,-268 1265,-268 1265,-70 8,-70"/>
</g>
<g id="clust2" class="cluster">
<title>cluster_AppModule_declarations</title>
<polygon fill="none" stroke="black" points="168,-78 168,-130 1257,-130 1257,-78 168,-78"/>
</g>
<g id="clust11" class="cluster">
<title>cluster_AppModule_imports</title>
<polygon fill="none" stroke="black" points="16,-78 16,-130 160,-130 160,-78 16,-78"/>
</g>
<g id="clust13" class="cluster">
<title>cluster_AppModule_bootstrap</title>
<polygon fill="none" stroke="black" points="586,-208 586,-260 710,-260 710,-208 586,-208"/>
</g>
<!-- AddHotelComponent -->
<g id="node1" class="node">
<title>AddHotelComponent</title>
<polygon fill="#ffffb3" stroke="black" points="1249.04,-122 1112.96,-122 1112.96,-86 1249.04,-86 1249.04,-122"/>
<text text-anchor="middle" x="1181" y="-99.8" font-family="Times,serif" font-size="14.00">AddHotelComponent</text>
</g>
<!-- AppModule -->
<g id="node9" class="node">
<title>AppModule</title>
<polygon fill="#8dd3c7" stroke="black" points="689.66,-187 686.66,-191 665.66,-191 662.66,-187 606.34,-187 606.34,-151 689.66,-151 689.66,-187"/>
<text text-anchor="middle" x="648" y="-164.8" font-family="Times,serif" font-size="14.00">AppModule</text>
</g>
<!-- AddHotelComponent&#45;&gt;AppModule -->
<g id="edge1" class="edge">
<title>AddHotelComponent&#45;&gt;AppModule</title>
<path fill="none" stroke="black" d="M1181,-122.01C1181,-144.49 1181,-180 1181,-180 1181,-180 699.82,-180 699.82,-180"/>
<polygon fill="black" stroke="black" points="699.82,-176.5 689.82,-180 699.82,-183.5 699.82,-176.5"/>
</g>
<!-- AppComponent -->
<g id="node2" class="node">
<title>AppComponent</title>
<polygon fill="#ffffb3" stroke="black" points="1094.94,-122 989.06,-122 989.06,-86 1094.94,-86 1094.94,-122"/>
<text text-anchor="middle" x="1042" y="-99.8" font-family="Times,serif" font-size="14.00">AppComponent</text>
</g>
<!-- AppComponent&#45;&gt;AppModule -->
<g id="edge2" class="edge">
<title>AppComponent&#45;&gt;AppModule</title>
<path fill="none" stroke="black" d="M1042,-122.13C1042,-142.57 1042,-173 1042,-173 1042,-173 699.79,-173 699.79,-173"/>
<polygon fill="black" stroke="black" points="699.79,-169.5 689.79,-173 699.79,-176.5 699.79,-169.5"/>
</g>
<!-- BodyComponent -->
<g id="node3" class="node">
<title>BodyComponent</title>
<polygon fill="#ffffb3" stroke="black" points="970.67,-122 859.33,-122 859.33,-86 970.67,-86 970.67,-122"/>
<text text-anchor="middle" x="915" y="-99.8" font-family="Times,serif" font-size="14.00">BodyComponent</text>
</g>
<!-- BodyComponent&#45;&gt;AppModule -->
<g id="edge3" class="edge">
<title>BodyComponent&#45;&gt;AppModule</title>
<path fill="none" stroke="black" d="M915,-122.27C915,-140.56 915,-166 915,-166 915,-166 699.72,-166 699.72,-166"/>
<polygon fill="black" stroke="black" points="699.72,-162.5 689.72,-166 699.72,-169.5 699.72,-162.5"/>
</g>
<!-- DetailComponent -->
<g id="node4" class="node">
<title>DetailComponent</title>
<polygon fill="#ffffb3" stroke="black" points="840.54,-122 725.46,-122 725.46,-86 840.54,-86 840.54,-122"/>
<text text-anchor="middle" x="783" y="-99.8" font-family="Times,serif" font-size="14.00">DetailComponent</text>
</g>
<!-- DetailComponent&#45;&gt;AppModule -->
<g id="edge4" class="edge">
<title>DetailComponent&#45;&gt;AppModule</title>
<path fill="none" stroke="black" d="M783,-122.01C783,-138.05 783,-159 783,-159 783,-159 699.97,-159 699.97,-159"/>
<polygon fill="black" stroke="black" points="699.97,-155.5 689.97,-159 699.97,-162.5 699.97,-155.5"/>
</g>
<!-- FooterComponent -->
<g id="node5" class="node">
<title>FooterComponent</title>
<polygon fill="#ffffb3" stroke="black" points="706.88,-122 589.12,-122 589.12,-86 706.88,-86 706.88,-122"/>
<text text-anchor="middle" x="648" y="-99.8" font-family="Times,serif" font-size="14.00">FooterComponent</text>
</g>
<!-- FooterComponent&#45;&gt;AppModule -->
<g id="edge5" class="edge">
<title>FooterComponent&#45;&gt;AppModule</title>
<path fill="none" stroke="black" d="M648,-122.11C648,-122.11 648,-140.99 648,-140.99"/>
<polygon fill="black" stroke="black" points="644.5,-140.99 648,-150.99 651.5,-140.99 644.5,-140.99"/>
</g>
<!-- HeaderComponent -->
<g id="node6" class="node">
<title>HeaderComponent</title>
<polygon fill="#ffffb3" stroke="black" points="570.74,-122 449.26,-122 449.26,-86 570.74,-86 570.74,-122"/>
<text text-anchor="middle" x="510" y="-99.8" font-family="Times,serif" font-size="14.00">HeaderComponent</text>
</g>
<!-- HeaderComponent&#45;&gt;AppModule -->
<g id="edge6" class="edge">
<title>HeaderComponent&#45;&gt;AppModule</title>
<path fill="none" stroke="black" d="M510,-122.01C510,-138.05 510,-159 510,-159 510,-159 596.22,-159 596.22,-159"/>
<polygon fill="black" stroke="black" points="596.22,-162.5 606.22,-159 596.22,-155.5 596.22,-162.5"/>
</g>
<!-- HomeComponent -->
<g id="node7" class="node">
<title>HomeComponent</title>
<polygon fill="#ffffb3" stroke="black" points="430.55,-122 315.45,-122 315.45,-86 430.55,-86 430.55,-122"/>
<text text-anchor="middle" x="373" y="-99.8" font-family="Times,serif" font-size="14.00">HomeComponent</text>
</g>
<!-- HomeComponent&#45;&gt;AppModule -->
<g id="edge7" class="edge">
<title>HomeComponent&#45;&gt;AppModule</title>
<path fill="none" stroke="black" d="M373,-122.27C373,-140.56 373,-166 373,-166 373,-166 596.23,-166 596.23,-166"/>
<polygon fill="black" stroke="black" points="596.23,-169.5 606.23,-166 596.23,-162.5 596.23,-169.5"/>
</g>
<!-- SignupComponent -->
<g id="node8" class="node">
<title>SignupComponent</title>
<polygon fill="#ffffb3" stroke="black" points="297.51,-122 176.49,-122 176.49,-86 297.51,-86 297.51,-122"/>
<text text-anchor="middle" x="237" y="-99.8" font-family="Times,serif" font-size="14.00">SignupComponent</text>
</g>
<!-- SignupComponent&#45;&gt;AppModule -->
<g id="edge8" class="edge">
<title>SignupComponent&#45;&gt;AppModule</title>
<path fill="none" stroke="black" d="M237,-122.13C237,-142.57 237,-173 237,-173 237,-173 596.33,-173 596.33,-173"/>
<polygon fill="black" stroke="black" points="596.33,-176.5 606.33,-173 596.33,-169.5 596.33,-176.5"/>
</g>
<!-- AppComponent  -->
<g id="node11" class="node">
<title>AppComponent </title>
<polygon fill="#80b1d3" stroke="black" points="702.44,-252 593.56,-252 593.56,-216 702.44,-216 702.44,-252"/>
<text text-anchor="middle" x="648" y="-229.8" font-family="Times,serif" font-size="14.00">AppComponent </text>
</g>
<!-- AppModule&#45;&gt;AppComponent  -->
<g id="edge10" class="edge">
<title>AppModule&#45;&gt;AppComponent </title>
<path fill="none" stroke="black" stroke-dasharray="1,5" d="M648,-187.11C648,-187.11 648,-205.99 648,-205.99"/>
<polygon fill="black" stroke="black" points="644.5,-205.99 648,-215.99 651.5,-205.99 644.5,-205.99"/>
</g>
<!-- AppRoutingModule -->
<g id="node10" class="node">
<title>AppRoutingModule</title>
<polygon fill="#8dd3c7" stroke="black" points="152.27,-122 149.27,-126 128.27,-126 125.27,-122 23.73,-122 23.73,-86 152.27,-86 152.27,-122"/>
<text text-anchor="middle" x="88" y="-99.8" font-family="Times,serif" font-size="14.00">AppRoutingModule</text>
</g>
<!-- AppRoutingModule&#45;&gt;AppModule -->
<g id="edge9" class="edge">
<title>AppRoutingModule&#45;&gt;AppModule</title>
<path fill="none" stroke="black" d="M88,-122.01C88,-144.49 88,-180 88,-180 88,-180 595.91,-180 595.91,-180"/>
<polygon fill="black" stroke="black" points="595.91,-183.5 605.91,-180 595.91,-176.5 595.91,-183.5"/>
</g>
</g>
</svg>
